<svg xmlns="http://www.w3.org/2000/svg" version="1.1" xmlns:xlink="http://www.w3.org/1999/xlink" xmlns:svgjs="http://svgjs.dev/svgjs" width="1500" height="530" viewBox="0 0 1500 530"><g transform="matrix(1,0,0,1,-0.9090909090909918,4.953682600492243)"><svg viewBox="0 0 396 140" data-background-color="#050816" preserveAspectRatio="xMidYMid meet" height="530" width="1500" xmlns="http://www.w3.org/2000/svg" xmlns:xlink="http://www.w3.org/1999/xlink"><g id="tight-bounds" transform="matrix(1,0,0,1,0.2400000000000091,0.1817201569133715)"><svg viewBox="0 0 395.52 139.63655968617326" height="139.63655968617326" width="395.52"><g><svg viewBox="0 0 395.52 139.63655968617326" height="139.63655968617326" width="395.52"><g><svg viewBox="0 0 692.3508551376389 244.43136" height="139.63655968617326" width="395.52"><g transform="matrix(1,0,0,1,296.8308551376388,11.235539838274946)"><svg viewBox="0 0 395.52000000000004 221.96028032345012" height="221.96028032345012" width="395.52000000000004"><g id="textblocktransform"><svg viewBox="0 0 395.52000000000004 221.96028032345012" height="221.96028032345012" width="395.52000000000004" id="textblock"><g><svg viewBox="0 0 395.52000000000004 221.96028032345012" height="221.96028032345012" width="395.52000000000004"><g transform="matrix(1,0,0,1,0,0)"><svg width="395.52000000000004" viewBox="1.65 -37.5 92.74 52.05" height="221.96028032345012" data-palette-color="#915eff"><path d="M19.9-34.8L19.9-34.8Q24.4-34.8 26.95-32.27 29.5-29.75 29.5-24.83 29.5-19.9 25.95-15.8 22.4-11.7 17-11.7L17-11.7Q13.9-11.7 13-12.5L13-12.5Q12.35-13.15 12.35-14.08 12.35-15 12.95-15.53 13.55-16.05 14.33-16.05 15.1-16.05 16.43-15.55 17.75-15.05 19.05-15.05L19.05-15.05Q21.85-15.05 23.93-17.32 26-19.6 26-22.98 26-26.35 23.78-28.85 21.55-31.35 18-31.35 14.45-31.35 11.4-29.45L11.4-29.45Q10.8-14.15 10.8 10.2L10.8 10.2Q10.8 14.55 8.05 14.55L8.05 14.55Q7 14.55 6.18 13.75 5.35 12.95 5.35 11.73 5.35 10.5 6.43 9 7.5 7.5 7.5 5.85L7.5 5.85Q7.5-10.3 7.35-15.3L7.35-15.3Q7.1-23.65 7.1-25.8L7.1-25.8Q5.7-24.15 4.85-22.4 4-20.65 3-20.65L3-20.65Q1.65-20.65 1.65-22.05 1.65-23.45 3.2-25.53 4.75-27.6 7.18-29.68 9.6-31.75 13.08-33.27 16.55-34.8 19.9-34.8ZM34.5-3.65L34.5-3.65Q34.5-9.95 34.25-14.7 34-19.45 34-20.3 34-21.15 34.67-21.98 35.35-22.8 36.3-22.8 37.25-22.8 37.85-22.03 38.45-21.25 38.45-19.78 38.45-18.3 38.1-14.83 37.75-11.35 37.75-7.6L37.75-7.6Q37.75-6.1 38.37-4.73 39-3.35 39-2.23 39-1.1 38.37-0.4 37.75 0.3 36.67 0.3 35.6 0.3 35.05-0.9 34.5-2.1 34.5-3.65ZM36.1-28.45Q35-28.45 34.35-29.05 33.7-29.65 33.7-30.8 33.7-31.95 34.5-32.77 35.3-33.6 36.4-33.6 37.5-33.6 38.17-32.98 38.85-32.35 38.85-31.2 38.85-30.05 38.02-29.25 37.2-28.45 36.1-28.45ZM48.77-1.3Q48.4-0.75 47.7-0.23 47 0.3 46.2 0.3 45.4 0.3 44.82-0.28 44.25-0.85 44.25-1.73 44.25-2.6 44.95-3.45 45.65-4.3 47-5.43 48.35-6.55 49.1-7.35 49.85-8.15 52.45-11.5L52.45-11.5Q49.35-15.1 47.1-17.3 44.85-19.5 44.85-20.75L44.85-20.75Q44.85-21.55 45.42-22.18 46-22.8 46.9-22.8L46.9-22.8Q48.4-22.8 49.7-21.05L49.7-21.05Q51.8-18.2 54.7-14.45L54.7-14.45Q59.65-21.05 60.37-21.93 61.1-22.8 61.95-22.8L61.95-22.8Q63.6-22.8 63.6-21.15L63.6-21.15Q63.6-20.05 62.25-18.9L62.25-18.9Q60-16.85 56.4-12.25L56.4-12.25Q60.65-6.75 63.1-4.2L63.1-4.2Q64.34-2.8 64.34-1.88 64.34-0.95 63.82-0.33 63.3 0.3 62.5 0.3L62.5 0.3Q61 0.3 59.4-2.35L59.4-2.35Q57.6-5.15 54.2-9.35L54.2-9.35Q52.05-6.35 50.6-4.1 49.15-1.85 48.77-1.3ZM77.74-9.95L77.74-9.95 71.79-10.45Q70.94-10.45 70.44-10.3L70.44-10.3Q70.74-7.45 72.87-5.55 74.99-3.65 77.89-3.65L77.89-3.65Q80.69-3.65 82.94-5.7L82.94-5.7Q83.74-6.4 84.14-6.4 84.54-6.4 84.84-6.1 85.14-5.8 85.14-5.45L85.14-5.45Q85.14-4 82.32-1.85 79.49 0.3 75.92 0.3 72.34 0.3 69.72-2.6 67.09-5.5 67.09-9.8L67.09-9.8Q67.09-15.3 71.24-19.05 75.39-22.8 80.39-22.8L80.39-22.8Q82.49-22.8 83.82-22.08 85.14-21.35 85.14-20.23 85.14-19.1 84.47-18.4 83.79-17.7 83.14-17.7 82.49-17.7 80.92-18.3 79.34-18.9 77.89-18.9L77.89-18.9Q75.19-18.9 73.22-17.28 71.24-15.65 70.59-13.25L70.59-13.25 77.49-13.65Q79.79-13.65 79.79-11.85L79.79-11.85Q79.79-9.95 77.74-9.95ZM89.44-3.65L89.44-3.65Q89.44-23.1 89.19-26.9L89.19-26.9Q88.74-33.8 88.74-34.95 88.74-36.1 89.42-36.8 90.09-37.5 91.04-37.5 91.99-37.5 92.59-36.8 93.19-36.1 93.19-35.05L93.19-35.05Q93.19-31.9 92.94-26.5L92.94-26.5Q92.44-13.8 92.44-7.6L92.44-7.6Q92.44-6.1 93.42-4.73 94.39-3.35 94.39-2.25 94.39-1.15 93.64-0.43 92.89 0.3 91.94 0.3L91.94 0.3Q89.44 0.3 89.44-3.65Z" opacity="1" transform="matrix(1,0,0,1,0,0)" fill="#915eff" class="wordmark-text-0" data-fill-palette-color="primary" id="text-0"></path></svg></g></svg></g></svg></g></svg></g><g><svg viewBox="0 0 244.43136 244.43136" height="244.43136" width="244.43136"><g><svg xmlns="http://www.w3.org/2000/svg" xmlns:xlink="http://www.w3.org/1999/xlink" version="1.1" x="0" y="0" viewBox="5 5 90 90" style="enable-background:new 0 0 100 100;" xml:space="preserve" height="244.43136" width="244.43136" class="icon-icon-0" data-fill-palette-color="accent" id="icon-0"><path d="M53.75 5C42.731 5 32.373 9.291 24.582 17.082L17.082 24.582C9.291 32.373 5 42.731 5 53.75S9.291 75.127 17.082 82.918 35.231 95 46.25 95 67.627 90.709 75.418 82.918L82.918 75.418C90.709 67.627 95 57.269 95 46.25S90.709 24.873 82.918 17.082 64.769 5 53.75 5M71.883 79.383C57.748 93.516 34.752 93.516 20.617 79.383 6.483 65.249 6.483 42.251 20.617 28.117 27.684 21.051 36.967 17.516 46.25 17.516S64.815 21.05 71.883 28.117C86.017 42.251 86.017 65.249 71.883 79.383M86.858 60.994A42 42 0 0 0 87.5 53.75C87.5 42.731 83.209 32.373 75.418 24.582S57.269 12.5 46.25 12.5C43.795 12.5 41.375 12.725 39.007 13.142A36.3 36.3 0 0 1 53.75 10.016C63.033 10.016 72.315 13.55 79.383 20.617 90.281 31.516 92.767 47.682 86.858 60.994" fill="#3a286e" data-fill-palette-color="accent"></path><path d="M46.25 22.5A31.07 31.07 0 0 0 28.74 27.88 2 2 0 0 0 28.494 28.055C20.349 33.701 15 43.11 15 53.75 15 70.981 29.019 85 46.25 85 56.891 85 66.302 79.65 71.948 71.503 72.009 71.424 72.069 71.346 72.12 71.262A31.1 31.1 0 0 0 77.5 53.75C77.5 36.519 63.481 22.5 46.25 22.5M46.25 80C31.775 80 20 68.225 20 53.75 20 49.514 21.015 45.512 22.805 41.966A31.5 31.5 0 0 0 22.5 46.25C22.5 63.481 36.519 77.5 53.75 77.5 55.193 77.5 56.622 77.389 58.034 77.195A26.1 26.1 0 0 1 46.25 80M68.171 68.166A26.1 26.1 0 0 1 53.75 72.5C39.275 72.5 27.5 60.725 27.5 46.25A26.1 26.1 0 0 1 31.834 31.829 26.1 26.1 0 0 1 46.25 27.5C60.725 27.5 72.5 39.275 72.5 53.75A26.1 26.1 0 0 1 68.171 68.166" fill="#3a286e" data-fill-palette-color="accent"></path></svg></g></svg></g></svg></g></svg></g><defs></defs></svg><rect width="395.52" height="139.63655968617326" fill="none" stroke="none" visibility="hidden"></rect></g></svg></g></svg>