<svg xmlns="http://www.w3.org/2000/svg" viewBox="0 0 1054.92 510.9"><defs><style>.cls-1{fill:#c72dc5;}.cls-2{fill:#3d1f5b;}</style></defs><g id="Layer_2" data-name="Layer 2"><g id="Layer_1-2" data-name="Layer 1"><path class="cls-1" d="M87.26,452.65a147.05,147.05,0,0,1-30.8-3.08,70.57,70.57,0,0,1-25.79-11,66.24,66.24,0,0,1-19.25-21.3Q3.59,403.88,0,383.35q3.08,18,12.32,27.59a54.73,54.73,0,0,0,21.69,14,95.4,95.4,0,0,0,26.56,5.13q14.12.76,26.69.77Zm147.05-21.82h29.52v21.82H212.5V378a113.87,113.87,0,0,0-23.87,2.18,36.16,36.16,0,0,0-16.55,8q-6.54,5.77-9.63,16t-3.07,26.69v21.82H74.17V430.83h63.39a100.24,100.24,0,0,1,4.49-31.18,61.27,61.27,0,0,1,13.73-23.48,59.76,59.76,0,0,1,23.36-14.89q14.1-5.13,33.36-5.13h21.81Z"/><path class="cls-1" d="M257.06,452.65V430.83H443.35V360.51h21.81v92.14ZM432.57,332.28h34.65v11.29H411.78V332.28h9.76q0-17.71,9.11-27.59t28.61-9.88v10.52a60.41,60.41,0,0,0-11.93,1,17.67,17.67,0,0,0-8.34,4,17.06,17.06,0,0,0-4.88,8.21A50.05,50.05,0,0,0,432.57,332.28Z"/><path class="cls-1" d="M506,430.83H549.6v21.82H484.16V278.13H506Z"/><path class="cls-1" d="M549.6,452.65V430.83h78.53V360.51H650v92.14Zm73.4-126a17.09,17.09,0,0,1-4.49-12.19,15.41,15.41,0,0,1,5.26-11.67A17.09,17.09,0,0,1,636,298.28a15.42,15.42,0,0,1,11.68,5.26,17,17,0,0,1,4.49,12.06,15.32,15.32,0,0,1-5.26,11.55,17.63,17.63,0,0,1-12.19,4.62A15,15,0,0,1,623,326.63Z"/><path class="cls-1" d="M692,452.65H670.22V305.59H692Z"/><path class="cls-1" d="M719.24,430.83q0-19.24,5.13-33.36a59.76,59.76,0,0,1,14.89-23.36,61.25,61.25,0,0,1,23.61-13.73,101.45,101.45,0,0,1,31.31-4.49v21.82q-16.42,0-26.82,3.08t-16.17,9.62a36.05,36.05,0,0,0-8,16.55,113.21,113.21,0,0,0-2.18,23.87Zm0,21.82V430.83h74.94v21.82ZM816,439a225.65,225.65,0,0,1-1.8,29.77q-1.8,13.35-8.21,22.72T787.25,505.9q-12.32,5-33.36,5,16.43-5.13,24.64-12.32a41.21,41.21,0,0,0,11.67-16.16,59,59,0,0,0,3.73-19.89q.24-10.92.25-23.49Zm-21.82,0V355.89H816V439ZM816,452.65V430.83h35.93v21.82Z"/><path class="cls-1" d="M837,452.65V430.83H984.88V360.51h21.81v92.14ZM939.45,332.54A17.1,17.1,0,0,1,935,320.35a15.42,15.42,0,0,1,5.26-11.68,17.09,17.09,0,0,1,12.19-4.49,15.47,15.47,0,0,1,11.68,5.26,17,17,0,0,1,4.49,12.06,15.32,15.32,0,0,1-5.26,11.55,17.63,17.63,0,0,1-12.19,4.62A15,15,0,0,1,939.45,332.54Zm40,0a17.15,17.15,0,0,1-4.5-12.19,15.43,15.43,0,0,1,5.27-11.68,17.09,17.09,0,0,1,12.19-4.49,15.45,15.45,0,0,1,11.67,5.26,17,17,0,0,1,4.5,12.06,15.33,15.33,0,0,1-5.27,11.55,17.6,17.6,0,0,1-12.19,4.62A15,15,0,0,1,979.49,332.54Z"/><path class="cls-2" d="M73.27,173.42q-70,0-56.46-63.6,13.31-62.49,83.35-62.48h70.19l-11.77,56H88.26q-14,0-15.41,6.45-1.68,7.56,12.32,7.56h28q70,0,56.88,62.48-13.59,63.6-83.63,63.6H0l11.91-56H98.34q14,0,15.69-7.57,1.26-6.44-12.75-6.44Z"/><path class="cls-2" d="M394.63,47.34,352.89,243.46h-56l14.85-70h-70l-14.84,70h-56L206.35,75.35l-22-28h84.19l-15,70h70.05l8.82-42-22-28Z"/><path class="cls-2" d="M585.2,15.68l78.45,157.74L808.51,19.32,761,243.46H705l11.77-56-73.83,84.05-38.24-84.05-11.77,56h-56L575.54,61.34Z"/><path class="cls-2" d="M859.64,173.42q-70,0-56.46-63.6,13.32-62.49,83.36-62.48h70.18l-11.77,56H874.63q-14,0-15.41,6.45-1.68,7.56,12.33,7.56h28q70.05,0,56.88,62.48-13.59,63.6-83.63,63.6H786.37l11.91-56h86.44q14,0,15.69-7.57,1.26-6.44-12.75-6.44Z"/><path class="cls-2" d="M1054.92,47.34l-41.74,196.12h-56L998.75,47.34Z"/><g id="layer1"><path id="path5209" class="cls-1" d="M448.51,281,555.93,75.68,474.28,95.31,514.51,0l-8.43,2L425.59,20,394.63,164l64-15.39Z"/></g></g></g></svg>